<mxfile host="app.diagrams.net" modified="2022-11-28T12:43:35.985Z" agent="5.0 (Windows NT 10.0; Win64; x64) AppleWebKit/537.36 (KHTML, like Gecko) Chrome/107.0.0.0 Safari/537.36" etag="ZfskGG7bWCM3zJnH4drQ" version="20.5.3" type="github">
  <diagram name="Page-1" id="2c0d36ab-eaac-3732-788b-9136903baeff">
    <mxGraphModel dx="3175.5" dy="1994.5" grid="1" gridSize="10" guides="1" tooltips="1" connect="1" arrows="1" fold="1" page="1" pageScale="1.5" pageWidth="1169" pageHeight="827" background="none" math="0" shadow="0">
      <root>
        <mxCell id="0" />
        <mxCell id="1" parent="0" />
        <mxCell id="123" value="" style="fillColor=#AE4132;strokeColor=none;opacity=30;" parent="1" vertex="1">
          <mxGeometry x="747" y="175.50000000000003" width="210" height="99.99999999999994" as="geometry" />
        </mxCell>
        <mxCell id="2GHbXNW2S5B1R3miSOFx-177" style="edgeStyle=orthogonalEdgeStyle;rounded=0;orthogonalLoop=1;jettySize=auto;html=1;entryX=0;entryY=0.5;entryDx=0;entryDy=0;strokeWidth=2;endArrow=classic;endFill=1;" edge="1" parent="1" source="2" target="2GHbXNW2S5B1R3miSOFx-156">
          <mxGeometry relative="1" as="geometry" />
        </mxCell>
        <mxCell id="2" value="（H）コンテンツ更新" style="rounded=1;fillColor=#23445D;gradientColor=none;strokeColor=none;fontColor=#FFFFFF;fontStyle=1;fontFamily=Tahoma;fontSize=14" parent="1" vertex="1">
          <mxGeometry x="757" y="185.5" width="190" height="80" as="geometry" />
        </mxCell>
        <mxCell id="4" value="Training Department" style="rounded=1;fillColor=#23445D;gradientColor=none;strokeColor=none;fontColor=#FFFFFF;fontStyle=1;fontFamily=Tahoma;fontSize=14" parent="1" vertex="1">
          <mxGeometry x="1361.9999999999998" y="400" width="190" height="80" as="geometry" />
        </mxCell>
        <mxCell id="9" value="" style="edgeStyle=elbowEdgeStyle;elbow=vertical;strokeWidth=2;rounded=0" parent="1" source="2" target="4" edge="1">
          <mxGeometry x="337" y="215.5" width="100" height="100" as="geometry">
            <mxPoint x="337" y="315.5" as="sourcePoint" />
            <mxPoint x="437" y="215.5" as="targetPoint" />
          </mxGeometry>
        </mxCell>
        <mxCell id="2GHbXNW2S5B1R3miSOFx-179" style="edgeStyle=orthogonalEdgeStyle;rounded=0;orthogonalLoop=1;jettySize=auto;html=1;entryX=0.5;entryY=0;entryDx=0;entryDy=0;strokeWidth=2;endArrow=classic;endFill=1;" edge="1" parent="1" source="12" target="2GHbXNW2S5B1R3miSOFx-178">
          <mxGeometry relative="1" as="geometry" />
        </mxCell>
        <mxCell id="12" value="サイト設定確認" style="rounded=1;fillColor=#23445D;gradientColor=none;strokeColor=none;fontColor=#FFFFFF;fontStyle=1;fontFamily=Tahoma;fontSize=14" parent="1" vertex="1">
          <mxGeometry x="569.9999999999999" y="400" width="190" height="80" as="geometry" />
        </mxCell>
        <mxCell id="59" value="" style="edgeStyle=elbowEdgeStyle;elbow=vertical;strokeWidth=2;rounded=0" parent="1" source="2" target="12" edge="1">
          <mxGeometry x="347" y="225.5" width="100" height="100" as="geometry">
            <mxPoint x="861.9999999999999" y="275.5" as="sourcePoint" />
            <mxPoint x="1466.9999999999998" y="345.5" as="targetPoint" />
          </mxGeometry>
        </mxCell>
        <mxCell id="61" value="" style="edgeStyle=elbowEdgeStyle;elbow=vertical;strokeWidth=2;rounded=0;endArrow=none;endFill=0;" parent="1" edge="1">
          <mxGeometry x="-23" y="138.5" width="100" height="100" as="geometry">
            <mxPoint x="852" y="268.5" as="sourcePoint" />
            <mxPoint x="470" y="950" as="targetPoint" />
            <Array as="points">
              <mxPoint x="510" y="333" />
            </Array>
          </mxGeometry>
        </mxCell>
        <mxCell id="2GHbXNW2S5B1R3miSOFx-129" value="ユーザアイコンメニュー" style="edgeLabel;html=1;align=center;verticalAlign=middle;resizable=0;points=[];" vertex="1" connectable="0" parent="61">
          <mxGeometry relative="1" as="geometry">
            <mxPoint y="-38" as="offset" />
          </mxGeometry>
        </mxCell>
        <mxCell id="2GHbXNW2S5B1R3miSOFx-124" style="edgeStyle=orthogonalEdgeStyle;rounded=0;orthogonalLoop=1;jettySize=auto;html=1;dashed=1;" edge="1" parent="1" source="2GHbXNW2S5B1R3miSOFx-123" target="123">
          <mxGeometry relative="1" as="geometry" />
        </mxCell>
        <mxCell id="2GHbXNW2S5B1R3miSOFx-126" style="edgeStyle=orthogonalEdgeStyle;rounded=0;orthogonalLoop=1;jettySize=auto;html=1;entryX=0;entryY=0.5;entryDx=0;entryDy=0;strokeWidth=2;" edge="1" parent="1" source="2GHbXNW2S5B1R3miSOFx-123" target="2GHbXNW2S5B1R3miSOFx-125">
          <mxGeometry relative="1" as="geometry" />
        </mxCell>
        <mxCell id="2GHbXNW2S5B1R3miSOFx-123" value="ログイン画面" style="rounded=1;fillColor=#23445D;gradientColor=none;strokeColor=none;fontColor=#FFFFFF;fontStyle=1;fontFamily=Tahoma;fontSize=14" vertex="1" parent="1">
          <mxGeometry x="757" y="30" width="190" height="80" as="geometry" />
        </mxCell>
        <mxCell id="2GHbXNW2S5B1R3miSOFx-128" value="メール経由" style="edgeStyle=orthogonalEdgeStyle;rounded=0;orthogonalLoop=1;jettySize=auto;html=1;entryX=0;entryY=0.5;entryDx=0;entryDy=0;strokeWidth=2;" edge="1" parent="1" source="2GHbXNW2S5B1R3miSOFx-125" target="2GHbXNW2S5B1R3miSOFx-127">
          <mxGeometry relative="1" as="geometry" />
        </mxCell>
        <mxCell id="2GHbXNW2S5B1R3miSOFx-125" value="パスワード忘れ" style="rounded=1;fillColor=#23445D;gradientColor=none;strokeColor=none;fontColor=#FFFFFF;fontStyle=1;fontFamily=Tahoma;fontSize=14" vertex="1" parent="1">
          <mxGeometry x="1017" y="30" width="190" height="80" as="geometry" />
        </mxCell>
        <mxCell id="2GHbXNW2S5B1R3miSOFx-159" style="edgeStyle=orthogonalEdgeStyle;rounded=0;orthogonalLoop=1;jettySize=auto;html=1;entryX=0;entryY=0.5;entryDx=0;entryDy=0;strokeWidth=2;endArrow=classic;endFill=1;" edge="1" parent="1" source="2GHbXNW2S5B1R3miSOFx-127" target="2GHbXNW2S5B1R3miSOFx-158">
          <mxGeometry relative="1" as="geometry" />
        </mxCell>
        <mxCell id="2GHbXNW2S5B1R3miSOFx-127" value="パスワードリセット" style="rounded=1;fillColor=#f0a30a;strokeColor=#BD7000;fontColor=#000000;fontStyle=1;fontFamily=Tahoma;fontSize=14" vertex="1" parent="1">
          <mxGeometry x="1347" y="30" width="190" height="80" as="geometry" />
        </mxCell>
        <mxCell id="2GHbXNW2S5B1R3miSOFx-130" value="" style="edgeStyle=elbowEdgeStyle;elbow=vertical;strokeWidth=2;rounded=0;entryX=0.5;entryY=0;entryDx=0;entryDy=0;" edge="1" parent="1">
          <mxGeometry x="359" y="238.5" width="100" height="100" as="geometry">
            <mxPoint x="852" y="273" as="sourcePoint" />
            <mxPoint x="1044" y="403" as="targetPoint" />
            <Array as="points">
              <mxPoint x="952" y="333" />
            </Array>
          </mxGeometry>
        </mxCell>
        <mxCell id="2GHbXNW2S5B1R3miSOFx-131" value="パスワード変更" style="rounded=1;fillColor=#23445D;gradientColor=none;strokeColor=none;fontColor=#FFFFFF;fontStyle=1;fontFamily=Tahoma;fontSize=14" vertex="1" parent="1">
          <mxGeometry x="179.9999999999999" y="389" width="190" height="80" as="geometry" />
        </mxCell>
        <mxCell id="2GHbXNW2S5B1R3miSOFx-134" value="" style="endArrow=classic;html=1;rounded=0;entryX=1;entryY=0.5;entryDx=0;entryDy=0;strokeWidth=2;" edge="1" parent="1" target="2GHbXNW2S5B1R3miSOFx-131">
          <mxGeometry width="50" height="50" relative="1" as="geometry">
            <mxPoint x="470" y="429" as="sourcePoint" />
            <mxPoint x="420" y="349" as="targetPoint" />
          </mxGeometry>
        </mxCell>
        <mxCell id="2GHbXNW2S5B1R3miSOFx-152" style="edgeStyle=orthogonalEdgeStyle;rounded=0;orthogonalLoop=1;jettySize=auto;html=1;entryX=1;entryY=0.5;entryDx=0;entryDy=0;strokeWidth=2;endArrow=classic;endFill=1;" edge="1" parent="1" source="2GHbXNW2S5B1R3miSOFx-135" target="2GHbXNW2S5B1R3miSOFx-151">
          <mxGeometry relative="1" as="geometry" />
        </mxCell>
        <mxCell id="2GHbXNW2S5B1R3miSOFx-135" value="パスワード変更" style="rounded=1;fillColor=#23445D;gradientColor=none;strokeColor=none;fontColor=#FFFFFF;fontStyle=1;fontFamily=Tahoma;fontSize=14" vertex="1" parent="1">
          <mxGeometry x="179.9999999999999" y="389" width="190" height="80" as="geometry" />
        </mxCell>
        <mxCell id="2GHbXNW2S5B1R3miSOFx-136" value="" style="endArrow=classic;html=1;rounded=0;entryX=1;entryY=0.5;entryDx=0;entryDy=0;strokeWidth=2;" edge="1" parent="1">
          <mxGeometry width="50" height="50" relative="1" as="geometry">
            <mxPoint x="470" y="539" as="sourcePoint" />
            <mxPoint x="370" y="539" as="targetPoint" />
          </mxGeometry>
        </mxCell>
        <mxCell id="2GHbXNW2S5B1R3miSOFx-137" value="規約画面" style="rounded=1;fillColor=#23445D;gradientColor=none;strokeColor=none;fontColor=#FFFFFF;fontStyle=1;fontFamily=Tahoma;fontSize=14" vertex="1" parent="1">
          <mxGeometry x="179.9999999999999" y="499" width="190" height="80" as="geometry" />
        </mxCell>
        <mxCell id="2GHbXNW2S5B1R3miSOFx-138" value="" style="endArrow=classic;html=1;rounded=0;entryX=1;entryY=0.5;entryDx=0;entryDy=0;strokeWidth=2;" edge="1" parent="1">
          <mxGeometry width="50" height="50" relative="1" as="geometry">
            <mxPoint x="470" y="649.25" as="sourcePoint" />
            <mxPoint x="370" y="649.25" as="targetPoint" />
          </mxGeometry>
        </mxCell>
        <mxCell id="2GHbXNW2S5B1R3miSOFx-146" style="edgeStyle=orthogonalEdgeStyle;rounded=0;orthogonalLoop=1;jettySize=auto;html=1;entryX=1;entryY=0.5;entryDx=0;entryDy=0;strokeWidth=2;endArrow=classic;endFill=1;" edge="1" parent="1" source="2GHbXNW2S5B1R3miSOFx-139" target="2GHbXNW2S5B1R3miSOFx-142">
          <mxGeometry relative="1" as="geometry" />
        </mxCell>
        <mxCell id="2GHbXNW2S5B1R3miSOFx-139" value="お問い合わせ画面" style="rounded=1;fillColor=#23445D;gradientColor=none;strokeColor=none;fontColor=#FFFFFF;fontStyle=1;fontFamily=Tahoma;fontSize=14" vertex="1" parent="1">
          <mxGeometry x="179.9999999999999" y="609.25" width="190" height="80" as="geometry" />
        </mxCell>
        <mxCell id="2GHbXNW2S5B1R3miSOFx-140" value="" style="endArrow=classic;html=1;rounded=0;entryX=1;entryY=0.5;entryDx=0;entryDy=0;strokeWidth=2;" edge="1" parent="1">
          <mxGeometry width="50" height="50" relative="1" as="geometry">
            <mxPoint x="470" y="810" as="sourcePoint" />
            <mxPoint x="370" y="809.5" as="targetPoint" />
          </mxGeometry>
        </mxCell>
        <mxCell id="2GHbXNW2S5B1R3miSOFx-141" value="FAQ画面" style="rounded=1;fillColor=#23445D;gradientColor=none;strokeColor=none;fontColor=#FFFFFF;fontStyle=1;fontFamily=Tahoma;fontSize=14" vertex="1" parent="1">
          <mxGeometry x="179.9999999999999" y="770" width="190" height="80" as="geometry" />
        </mxCell>
        <mxCell id="2GHbXNW2S5B1R3miSOFx-147" style="edgeStyle=orthogonalEdgeStyle;rounded=0;orthogonalLoop=1;jettySize=auto;html=1;entryX=1;entryY=0.5;entryDx=0;entryDy=0;strokeWidth=2;endArrow=classic;endFill=1;" edge="1" parent="1" source="2GHbXNW2S5B1R3miSOFx-142" target="2GHbXNW2S5B1R3miSOFx-144">
          <mxGeometry relative="1" as="geometry" />
        </mxCell>
        <mxCell id="2GHbXNW2S5B1R3miSOFx-142" value="お問い合わせ入力画面" style="rounded=1;fillColor=#23445D;gradientColor=none;strokeColor=none;fontColor=#FFFFFF;fontStyle=1;fontFamily=Tahoma;fontSize=14" vertex="1" parent="1">
          <mxGeometry x="-80.00000000000011" y="609.25" width="190" height="80" as="geometry" />
        </mxCell>
        <mxCell id="2GHbXNW2S5B1R3miSOFx-149" style="edgeStyle=orthogonalEdgeStyle;rounded=0;orthogonalLoop=1;jettySize=auto;html=1;entryX=1;entryY=0.5;entryDx=0;entryDy=0;strokeWidth=2;endArrow=classic;endFill=1;" edge="1" parent="1" source="2GHbXNW2S5B1R3miSOFx-144" target="2GHbXNW2S5B1R3miSOFx-148">
          <mxGeometry relative="1" as="geometry" />
        </mxCell>
        <mxCell id="2GHbXNW2S5B1R3miSOFx-144" value="お問い合わせ確認画面" style="rounded=1;fillColor=#23445D;gradientColor=none;strokeColor=none;fontColor=#FFFFFF;fontStyle=1;fontFamily=Tahoma;fontSize=14" vertex="1" parent="1">
          <mxGeometry x="-350.0000000000001" y="609.25" width="190" height="80" as="geometry" />
        </mxCell>
        <mxCell id="2GHbXNW2S5B1R3miSOFx-148" value="お問い合わせ完了画面" style="rounded=1;fillColor=#23445D;gradientColor=none;strokeColor=none;fontColor=#FFFFFF;fontStyle=1;fontFamily=Tahoma;fontSize=14" vertex="1" parent="1">
          <mxGeometry x="-610.0000000000001" y="609.25" width="190" height="80" as="geometry" />
        </mxCell>
        <mxCell id="2GHbXNW2S5B1R3miSOFx-150" value="" style="endArrow=classic;html=1;rounded=0;strokeWidth=2;exitX=0.5;exitY=1;exitDx=0;exitDy=0;entryX=0.545;entryY=1.034;entryDx=0;entryDy=0;entryPerimeter=0;" edge="1" parent="1">
          <mxGeometry width="50" height="50" relative="1" as="geometry">
            <mxPoint x="-513" y="689.25" as="sourcePoint" />
            <mxPoint x="285.5500000000002" y="691.97" as="targetPoint" />
            <Array as="points">
              <mxPoint x="-513" y="760" />
              <mxPoint x="286" y="760" />
            </Array>
          </mxGeometry>
        </mxCell>
        <mxCell id="2GHbXNW2S5B1R3miSOFx-154" style="edgeStyle=orthogonalEdgeStyle;rounded=0;orthogonalLoop=1;jettySize=auto;html=1;entryX=0;entryY=0.5;entryDx=0;entryDy=0;strokeWidth=2;endArrow=classic;endFill=1;exitX=0.5;exitY=0;exitDx=0;exitDy=0;" edge="1" parent="1" source="2GHbXNW2S5B1R3miSOFx-151" target="2GHbXNW2S5B1R3miSOFx-123">
          <mxGeometry relative="1" as="geometry">
            <Array as="points">
              <mxPoint x="10" y="389" />
              <mxPoint x="10" y="70" />
            </Array>
          </mxGeometry>
        </mxCell>
        <mxCell id="2GHbXNW2S5B1R3miSOFx-151" value="パスワード変更&#xa;完了画面" style="rounded=1;fillColor=#23445D;gradientColor=none;strokeColor=none;fontColor=#FFFFFF;fontStyle=1;fontFamily=Tahoma;fontSize=14" vertex="1" parent="1">
          <mxGeometry x="-80.00000000000011" y="389" width="190" height="80" as="geometry" />
        </mxCell>
        <mxCell id="2GHbXNW2S5B1R3miSOFx-156" value="アップロード中画面" style="rounded=1;fillColor=#23445D;gradientColor=none;strokeColor=none;fontColor=#FFFFFF;fontStyle=1;fontFamily=Tahoma;fontSize=14" vertex="1" parent="1">
          <mxGeometry x="1060" y="185.5" width="190" height="80" as="geometry" />
        </mxCell>
        <mxCell id="2GHbXNW2S5B1R3miSOFx-160" style="edgeStyle=orthogonalEdgeStyle;rounded=0;orthogonalLoop=1;jettySize=auto;html=1;entryX=0.687;entryY=1.013;entryDx=0;entryDy=0;entryPerimeter=0;strokeWidth=2;endArrow=classic;endFill=1;" edge="1" parent="1" source="2GHbXNW2S5B1R3miSOFx-158" target="2GHbXNW2S5B1R3miSOFx-123">
          <mxGeometry relative="1" as="geometry">
            <Array as="points">
              <mxPoint x="1730" y="130" />
              <mxPoint x="888" y="130" />
            </Array>
          </mxGeometry>
        </mxCell>
        <mxCell id="2GHbXNW2S5B1R3miSOFx-158" value="パスワードリセット&#xa;完了" style="rounded=1;fillColor=#f0a30a;strokeColor=#BD7000;fontColor=#000000;fontStyle=1;fontFamily=Tahoma;fontSize=14" vertex="1" parent="1">
          <mxGeometry x="1630" y="30" width="190" height="80" as="geometry" />
        </mxCell>
        <mxCell id="2GHbXNW2S5B1R3miSOFx-164" value="メール送信" style="edgeStyle=orthogonalEdgeStyle;rounded=0;orthogonalLoop=1;jettySize=auto;html=1;entryX=0.5;entryY=0;entryDx=0;entryDy=0;strokeWidth=2;endArrow=classic;endFill=1;" edge="1" parent="1" source="2GHbXNW2S5B1R3miSOFx-161" target="2GHbXNW2S5B1R3miSOFx-162">
          <mxGeometry relative="1" as="geometry" />
        </mxCell>
        <mxCell id="2GHbXNW2S5B1R3miSOFx-161" value="ユーザ登録用メール入力" style="rounded=1;fillColor=#23445D;gradientColor=none;strokeColor=none;fontColor=#FFFFFF;fontStyle=1;fontFamily=Tahoma;fontSize=14" vertex="1" parent="1">
          <mxGeometry x="757" y="-470" width="190" height="80" as="geometry" />
        </mxCell>
        <mxCell id="2GHbXNW2S5B1R3miSOFx-165" style="edgeStyle=orthogonalEdgeStyle;rounded=0;orthogonalLoop=1;jettySize=auto;html=1;entryX=0.5;entryY=0;entryDx=0;entryDy=0;strokeWidth=2;endArrow=classic;endFill=1;" edge="1" parent="1" source="2GHbXNW2S5B1R3miSOFx-162" target="2GHbXNW2S5B1R3miSOFx-163">
          <mxGeometry relative="1" as="geometry" />
        </mxCell>
        <mxCell id="2GHbXNW2S5B1R3miSOFx-162" value="ユーザ登録入力" style="rounded=1;fillColor=#f0a30a;strokeColor=#BD7000;fontColor=#000000;fontStyle=1;fontFamily=Tahoma;fontSize=14" vertex="1" parent="1">
          <mxGeometry x="757" y="-270" width="190" height="80" as="geometry" />
        </mxCell>
        <mxCell id="2GHbXNW2S5B1R3miSOFx-166" style="edgeStyle=orthogonalEdgeStyle;rounded=0;orthogonalLoop=1;jettySize=auto;html=1;entryX=0.5;entryY=0;entryDx=0;entryDy=0;strokeWidth=2;endArrow=classic;endFill=1;" edge="1" parent="1" source="2GHbXNW2S5B1R3miSOFx-163" target="2GHbXNW2S5B1R3miSOFx-123">
          <mxGeometry relative="1" as="geometry" />
        </mxCell>
        <mxCell id="2GHbXNW2S5B1R3miSOFx-163" value="ユーザ登録完了" style="rounded=1;fillColor=#23445D;gradientColor=none;strokeColor=none;fontColor=#FFFFFF;fontStyle=1;fontFamily=Tahoma;fontSize=14" vertex="1" parent="1">
          <mxGeometry x="757" y="-130" width="190" height="80" as="geometry" />
        </mxCell>
        <mxCell id="2GHbXNW2S5B1R3miSOFx-167" value="Cognitoで提供する画面" style="text;html=1;resizable=0;autosize=1;align=center;verticalAlign=middle;points=[];fillColor=none;strokeColor=none;rounded=0;" vertex="1" parent="1">
          <mxGeometry x="640" y="-300" width="150" height="30" as="geometry" />
        </mxCell>
        <mxCell id="2GHbXNW2S5B1R3miSOFx-171" style="edgeStyle=orthogonalEdgeStyle;rounded=0;orthogonalLoop=1;jettySize=auto;html=1;entryX=1;entryY=0.5;entryDx=0;entryDy=0;strokeWidth=2;endArrow=classic;endFill=1;" edge="1" parent="1" source="2GHbXNW2S5B1R3miSOFx-168" target="2GHbXNW2S5B1R3miSOFx-170">
          <mxGeometry relative="1" as="geometry" />
        </mxCell>
        <mxCell id="2GHbXNW2S5B1R3miSOFx-168" value="ユーザ登録状況" style="rounded=1;fillColor=#23445D;gradientColor=none;strokeColor=none;fontColor=#FFFFFF;fontStyle=1;fontFamily=Tahoma;fontSize=14" vertex="1" parent="1">
          <mxGeometry x="179.9999999999999" y="900" width="190" height="80" as="geometry" />
        </mxCell>
        <mxCell id="2GHbXNW2S5B1R3miSOFx-169" value="" style="endArrow=classic;html=1;rounded=0;entryX=1;entryY=0.5;entryDx=0;entryDy=0;strokeWidth=2;" edge="1" parent="1">
          <mxGeometry width="50" height="50" relative="1" as="geometry">
            <mxPoint x="470" y="950.5" as="sourcePoint" />
            <mxPoint x="370" y="950" as="targetPoint" />
          </mxGeometry>
        </mxCell>
        <mxCell id="2GHbXNW2S5B1R3miSOFx-173" style="edgeStyle=orthogonalEdgeStyle;rounded=0;orthogonalLoop=1;jettySize=auto;html=1;entryX=1;entryY=0.5;entryDx=0;entryDy=0;strokeWidth=2;endArrow=classic;endFill=1;" edge="1" parent="1" source="2GHbXNW2S5B1R3miSOFx-170" target="2GHbXNW2S5B1R3miSOFx-172">
          <mxGeometry relative="1" as="geometry" />
        </mxCell>
        <mxCell id="2GHbXNW2S5B1R3miSOFx-170" value="解約" style="rounded=1;fillColor=#23445D;gradientColor=none;strokeColor=none;fontColor=#FFFFFF;fontStyle=1;fontFamily=Tahoma;fontSize=14" vertex="1" parent="1">
          <mxGeometry x="-70.00000000000011" y="900" width="190" height="80" as="geometry" />
        </mxCell>
        <mxCell id="2GHbXNW2S5B1R3miSOFx-175" style="edgeStyle=orthogonalEdgeStyle;rounded=0;orthogonalLoop=1;jettySize=auto;html=1;entryX=1;entryY=0.5;entryDx=0;entryDy=0;strokeWidth=2;endArrow=classic;endFill=1;" edge="1" parent="1" source="2GHbXNW2S5B1R3miSOFx-172" target="2GHbXNW2S5B1R3miSOFx-174">
          <mxGeometry relative="1" as="geometry" />
        </mxCell>
        <mxCell id="2GHbXNW2S5B1R3miSOFx-172" value="解約注意" style="rounded=1;fillColor=#23445D;gradientColor=none;strokeColor=none;fontColor=#FFFFFF;fontStyle=1;fontFamily=Tahoma;fontSize=14" vertex="1" parent="1">
          <mxGeometry x="-330.0000000000001" y="900" width="190" height="80" as="geometry" />
        </mxCell>
        <mxCell id="2GHbXNW2S5B1R3miSOFx-176" style="edgeStyle=orthogonalEdgeStyle;rounded=0;orthogonalLoop=1;jettySize=auto;html=1;entryX=0;entryY=0.5;entryDx=0;entryDy=0;strokeWidth=2;endArrow=classic;endFill=1;" edge="1" parent="1" source="2GHbXNW2S5B1R3miSOFx-174" target="2GHbXNW2S5B1R3miSOFx-123">
          <mxGeometry relative="1" as="geometry">
            <Array as="points">
              <mxPoint x="-670" y="940" />
              <mxPoint x="-670" y="70" />
            </Array>
          </mxGeometry>
        </mxCell>
        <mxCell id="2GHbXNW2S5B1R3miSOFx-174" value="解約完了" style="rounded=1;fillColor=#23445D;gradientColor=none;strokeColor=none;fontColor=#FFFFFF;fontStyle=1;fontFamily=Tahoma;fontSize=14" vertex="1" parent="1">
          <mxGeometry x="-590.0000000000001" y="900" width="190" height="80" as="geometry" />
        </mxCell>
        <mxCell id="2GHbXNW2S5B1R3miSOFx-181" value="クレカ未登録の場合" style="edgeStyle=orthogonalEdgeStyle;rounded=0;orthogonalLoop=1;jettySize=auto;html=1;entryX=0.5;entryY=0;entryDx=0;entryDy=0;strokeWidth=2;endArrow=classic;endFill=1;" edge="1" parent="1" source="2GHbXNW2S5B1R3miSOFx-178" target="2GHbXNW2S5B1R3miSOFx-180">
          <mxGeometry relative="1" as="geometry" />
        </mxCell>
        <mxCell id="2GHbXNW2S5B1R3miSOFx-197" value="クレカ登録済みの場合" style="edgeStyle=orthogonalEdgeStyle;rounded=0;orthogonalLoop=1;jettySize=auto;html=1;entryX=0.003;entryY=0.594;entryDx=0;entryDy=0;entryPerimeter=0;strokeWidth=2;endArrow=classic;endFill=1;" edge="1" parent="1">
          <mxGeometry x="-0.5817" relative="1" as="geometry">
            <mxPoint x="570" y="590" as="sourcePoint" />
            <mxPoint x="570.5700000000002" y="1027.52" as="targetPoint" />
            <Array as="points">
              <mxPoint x="550" y="590" />
              <mxPoint x="550" y="1028" />
            </Array>
            <mxPoint as="offset" />
          </mxGeometry>
        </mxCell>
        <mxCell id="2GHbXNW2S5B1R3miSOFx-178" value="プラン選択" style="rounded=1;fillColor=#23445D;gradientColor=none;strokeColor=none;fontColor=#FFFFFF;fontStyle=1;fontFamily=Tahoma;fontSize=14" vertex="1" parent="1">
          <mxGeometry x="569.9999999999999" y="550" width="190" height="80" as="geometry" />
        </mxCell>
        <mxCell id="2GHbXNW2S5B1R3miSOFx-183" style="edgeStyle=orthogonalEdgeStyle;rounded=0;orthogonalLoop=1;jettySize=auto;html=1;entryX=0.5;entryY=0;entryDx=0;entryDy=0;strokeWidth=2;endArrow=classic;endFill=1;" edge="1" parent="1" source="2GHbXNW2S5B1R3miSOFx-180" target="2GHbXNW2S5B1R3miSOFx-182">
          <mxGeometry relative="1" as="geometry" />
        </mxCell>
        <mxCell id="2GHbXNW2S5B1R3miSOFx-180" value="クレジットカード入力" style="rounded=1;fillColor=#23445D;gradientColor=none;strokeColor=none;fontColor=#FFFFFF;fontStyle=1;fontFamily=Tahoma;fontSize=14" vertex="1" parent="1">
          <mxGeometry x="569.9999999999999" y="700" width="190" height="80" as="geometry" />
        </mxCell>
        <mxCell id="2GHbXNW2S5B1R3miSOFx-185" style="edgeStyle=orthogonalEdgeStyle;rounded=0;orthogonalLoop=1;jettySize=auto;html=1;entryX=0.5;entryY=0;entryDx=0;entryDy=0;strokeWidth=2;endArrow=classic;endFill=1;" edge="1" parent="1" source="2GHbXNW2S5B1R3miSOFx-182" target="2GHbXNW2S5B1R3miSOFx-184">
          <mxGeometry relative="1" as="geometry" />
        </mxCell>
        <mxCell id="2GHbXNW2S5B1R3miSOFx-182" value="クレジットカード登録完了" style="rounded=1;fillColor=#23445D;gradientColor=none;strokeColor=none;fontColor=#FFFFFF;fontStyle=1;fontFamily=Tahoma;fontSize=14" vertex="1" parent="1">
          <mxGeometry x="569.9999999999999" y="840" width="190" height="80" as="geometry" />
        </mxCell>
        <mxCell id="2GHbXNW2S5B1R3miSOFx-187" style="edgeStyle=orthogonalEdgeStyle;rounded=0;orthogonalLoop=1;jettySize=auto;html=1;entryX=0.5;entryY=0;entryDx=0;entryDy=0;strokeWidth=2;endArrow=classic;endFill=1;" edge="1" parent="1" source="2GHbXNW2S5B1R3miSOFx-184" target="2GHbXNW2S5B1R3miSOFx-186">
          <mxGeometry relative="1" as="geometry" />
        </mxCell>
        <mxCell id="2GHbXNW2S5B1R3miSOFx-184" value="サイト名入力" style="rounded=1;fillColor=#23445D;gradientColor=none;strokeColor=none;fontColor=#FFFFFF;fontStyle=1;fontFamily=Tahoma;fontSize=14" vertex="1" parent="1">
          <mxGeometry x="569.9999999999999" y="980" width="190" height="80" as="geometry" />
        </mxCell>
        <mxCell id="2GHbXNW2S5B1R3miSOFx-190" value="自前ドメイン使用" style="edgeStyle=orthogonalEdgeStyle;rounded=0;orthogonalLoop=1;jettySize=auto;html=1;entryX=0.545;entryY=0.025;entryDx=0;entryDy=0;entryPerimeter=0;strokeWidth=2;endArrow=classic;endFill=1;" edge="1" parent="1" source="2GHbXNW2S5B1R3miSOFx-186" target="2GHbXNW2S5B1R3miSOFx-188">
          <mxGeometry relative="1" as="geometry" />
        </mxCell>
        <mxCell id="2GHbXNW2S5B1R3miSOFx-191" value="SonicHostドメイン使用" style="edgeStyle=orthogonalEdgeStyle;rounded=0;orthogonalLoop=1;jettySize=auto;html=1;strokeWidth=2;endArrow=classic;endFill=1;" edge="1" parent="1" source="2GHbXNW2S5B1R3miSOFx-186" target="2GHbXNW2S5B1R3miSOFx-189">
          <mxGeometry relative="1" as="geometry" />
        </mxCell>
        <mxCell id="2GHbXNW2S5B1R3miSOFx-186" value="ドメイン方式選択" style="rounded=1;fillColor=#23445D;gradientColor=none;strokeColor=none;fontColor=#FFFFFF;fontStyle=1;fontFamily=Tahoma;fontSize=14" vertex="1" parent="1">
          <mxGeometry x="569.9999999999999" y="1110" width="190" height="80" as="geometry" />
        </mxCell>
        <mxCell id="2GHbXNW2S5B1R3miSOFx-193" style="edgeStyle=orthogonalEdgeStyle;rounded=0;orthogonalLoop=1;jettySize=auto;html=1;strokeWidth=2;endArrow=classic;endFill=1;" edge="1" parent="1" source="2GHbXNW2S5B1R3miSOFx-188" target="2GHbXNW2S5B1R3miSOFx-192">
          <mxGeometry relative="1" as="geometry" />
        </mxCell>
        <mxCell id="2GHbXNW2S5B1R3miSOFx-188" value="ドメイン入力" style="rounded=1;fillColor=#23445D;gradientColor=none;strokeColor=none;fontColor=#FFFFFF;fontStyle=1;fontFamily=Tahoma;fontSize=14" vertex="1" parent="1">
          <mxGeometry x="406.9999999999999" y="1259" width="190" height="80" as="geometry" />
        </mxCell>
        <mxCell id="2GHbXNW2S5B1R3miSOFx-194" style="edgeStyle=orthogonalEdgeStyle;rounded=0;orthogonalLoop=1;jettySize=auto;html=1;entryX=0.5;entryY=0;entryDx=0;entryDy=0;strokeWidth=2;endArrow=classic;endFill=1;" edge="1" parent="1" source="2GHbXNW2S5B1R3miSOFx-189" target="2GHbXNW2S5B1R3miSOFx-192">
          <mxGeometry relative="1" as="geometry" />
        </mxCell>
        <mxCell id="2GHbXNW2S5B1R3miSOFx-189" value="ドメイン選択・入力" style="rounded=1;fillColor=#23445D;gradientColor=none;strokeColor=none;fontColor=#FFFFFF;fontStyle=1;fontFamily=Tahoma;fontSize=14" vertex="1" parent="1">
          <mxGeometry x="737.9999999999999" y="1259" width="190" height="80" as="geometry" />
        </mxCell>
        <mxCell id="2GHbXNW2S5B1R3miSOFx-196" style="edgeStyle=orthogonalEdgeStyle;rounded=0;orthogonalLoop=1;jettySize=auto;html=1;entryX=0.5;entryY=0;entryDx=0;entryDy=0;strokeWidth=2;endArrow=classic;endFill=1;" edge="1" parent="1" source="2GHbXNW2S5B1R3miSOFx-192" target="2GHbXNW2S5B1R3miSOFx-195">
          <mxGeometry relative="1" as="geometry" />
        </mxCell>
        <mxCell id="2GHbXNW2S5B1R3miSOFx-192" value="サービスドメイン入力" style="rounded=1;fillColor=#23445D;gradientColor=none;strokeColor=none;fontColor=#FFFFFF;fontStyle=1;fontFamily=Tahoma;fontSize=14" vertex="1" parent="1">
          <mxGeometry x="566.9999999999999" y="1400" width="190" height="80" as="geometry" />
        </mxCell>
        <mxCell id="2GHbXNW2S5B1R3miSOFx-202" value="初のサイト登録の場合" style="edgeStyle=orthogonalEdgeStyle;rounded=0;orthogonalLoop=1;jettySize=auto;html=1;entryX=0.5;entryY=0;entryDx=0;entryDy=0;strokeWidth=2;endArrow=classic;endFill=1;" edge="1" parent="1" source="2GHbXNW2S5B1R3miSOFx-195" target="2GHbXNW2S5B1R3miSOFx-201">
          <mxGeometry relative="1" as="geometry" />
        </mxCell>
        <mxCell id="2GHbXNW2S5B1R3miSOFx-205" value="サイト登録２回目以降" style="edgeStyle=orthogonalEdgeStyle;rounded=0;orthogonalLoop=1;jettySize=auto;html=1;entryX=0;entryY=0.5;entryDx=0;entryDy=0;strokeWidth=2;fontColor=#23445D;endArrow=classic;endFill=1;" edge="1" parent="1" source="2GHbXNW2S5B1R3miSOFx-195" target="2GHbXNW2S5B1R3miSOFx-203">
          <mxGeometry x="-0.3066" relative="1" as="geometry">
            <Array as="points">
              <mxPoint x="500" y="1590" />
              <mxPoint x="500" y="1880" />
            </Array>
            <mxPoint as="offset" />
          </mxGeometry>
        </mxCell>
        <mxCell id="2GHbXNW2S5B1R3miSOFx-195" value="サイト情報入力確認" style="rounded=1;fillColor=#23445D;gradientColor=none;strokeColor=none;fontColor=#FFFFFF;fontStyle=1;fontFamily=Tahoma;fontSize=14" vertex="1" parent="1">
          <mxGeometry x="566.9999999999999" y="1550" width="190" height="80" as="geometry" />
        </mxCell>
        <mxCell id="2GHbXNW2S5B1R3miSOFx-200" style="edgeStyle=orthogonalEdgeStyle;rounded=0;orthogonalLoop=1;jettySize=auto;html=1;entryX=0;entryY=0.5;entryDx=0;entryDy=0;strokeWidth=2;endArrow=classic;endFill=1;exitX=0;exitY=0.25;exitDx=0;exitDy=0;" edge="1" parent="1" source="2GHbXNW2S5B1R3miSOFx-123" target="2GHbXNW2S5B1R3miSOFx-161">
          <mxGeometry relative="1" as="geometry">
            <mxPoint x="664.5" y="-90" as="sourcePoint" />
            <mxPoint x="664.5" y="-10" as="targetPoint" />
            <Array as="points">
              <mxPoint x="640" y="50" />
              <mxPoint x="640" y="-430" />
            </Array>
          </mxGeometry>
        </mxCell>
        <mxCell id="2GHbXNW2S5B1R3miSOFx-204" style="edgeStyle=orthogonalEdgeStyle;rounded=0;orthogonalLoop=1;jettySize=auto;html=1;entryX=0.5;entryY=0;entryDx=0;entryDy=0;strokeWidth=2;endArrow=classic;endFill=1;" edge="1" parent="1" source="2GHbXNW2S5B1R3miSOFx-201" target="2GHbXNW2S5B1R3miSOFx-203">
          <mxGeometry relative="1" as="geometry" />
        </mxCell>
        <mxCell id="2GHbXNW2S5B1R3miSOFx-201" value="Welcome画面" style="rounded=1;fillColor=#23445D;gradientColor=none;strokeColor=none;fontColor=#FFFFFF;fontStyle=1;fontFamily=Tahoma;fontSize=14" vertex="1" parent="1">
          <mxGeometry x="566.9999999999999" y="1700" width="190" height="80" as="geometry" />
        </mxCell>
        <mxCell id="2GHbXNW2S5B1R3miSOFx-203" value="（H）コンテンツ更新" style="rounded=1;fillColor=none;gradientColor=none;strokeColor=#23445D;fontColor=#23445D;fontStyle=1;fontFamily=Tahoma;fontSize=14;dashed=1;strokeWidth=3;" vertex="1" parent="1">
          <mxGeometry x="566.9999999999999" y="1840" width="190" height="80" as="geometry" />
        </mxCell>
        <mxCell id="2GHbXNW2S5B1R3miSOFx-207" value="サイト未登録の場合" style="edgeStyle=orthogonalEdgeStyle;rounded=0;orthogonalLoop=1;jettySize=auto;html=1;strokeWidth=2;endArrow=classic;endFill=1;entryX=0;entryY=0.25;entryDx=0;entryDy=0;" edge="1" parent="1" target="2GHbXNW2S5B1R3miSOFx-178">
          <mxGeometry x="-0.6049" relative="1" as="geometry">
            <mxPoint x="850" y="140" as="sourcePoint" />
            <mxPoint x="540" y="540" as="targetPoint" />
            <Array as="points">
              <mxPoint x="520" y="140" />
              <mxPoint x="520" y="570" />
            </Array>
            <mxPoint as="offset" />
          </mxGeometry>
        </mxCell>
      </root>
    </mxGraphModel>
  </diagram>
</mxfile>
